<svg xmlns="http://www.w3.org/2000/svg" xmlns:xlink="http://www.w3.org/1999/xlink" viewBox="0 0 351 387"><defs><style>.cls-1,.cls-2,.cls-3,.cls-4,.cls-5,.cls-6,.cls-7,.cls-8{stroke-miterlimit:10;stroke-width:2px;}.cls-1{fill:url(#Gradiente_sem_nome_43);stroke:url(#Gradiente_sem_nome_47);}.cls-2{fill:url(#Gradiente_sem_nome_38);stroke:url(#Gradiente_sem_nome_51);}.cls-3{fill:url(#Gradiente_sem_nome_96);stroke:url(#Gradiente_sem_nome_35);}.cls-4{fill:url(#Gradiente_sem_nome_105);stroke:url(#Gradiente_sem_nome_35-2);}.cls-5{fill:url(#Gradiente_sem_nome_73);stroke:url(#Gradiente_sem_nome_35-3);}.cls-6{fill:url(#Gradiente_sem_nome_87);stroke:url(#Gradiente_sem_nome_35-4);}.cls-7{fill:url(#Nova_amostra_de_gradiente_1);stroke:url(#Nova_amostra_de_gradiente_1-2);}.cls-8{fill:url(#Gradiente_sem_nome_79);stroke:url(#Gradiente_sem_nome_35-5);}.cls-9{font-size:45.98px;stroke:#fff;stroke-width:4px;font-family:AdobeMingStd-Light-B5pc-H, Adobe Ming Std;}</style><linearGradient id="Gradiente_sem_nome_43" x1="144.77" y1="151.81" x2="199.15" y2="151.81" gradientUnits="userSpaceOnUse"><stop offset="0.02" stop-color="#bc9554"/><stop offset="0.14" stop-color="#bb9351"/><stop offset="0.23" stop-color="#b68b48"/><stop offset="0.26" stop-color="#b38642"/><stop offset="0.64" stop-color="#ddbb78"/><stop offset="1" stop-color="#c99a50"/></linearGradient><linearGradient id="Gradiente_sem_nome_47" x1="143.57" y1="151.53" x2="200.15" y2="151.53" gradientUnits="userSpaceOnUse"><stop offset="0.02" stop-color="#bc9554"/><stop offset="0.18" stop-color="#bb9351"/><stop offset="0.29" stop-color="#b68b48"/><stop offset="0.33" stop-color="#b38642"/><stop offset="0.69" stop-color="#ddbb78"/><stop offset="1" stop-color="#c99a50"/></linearGradient><linearGradient id="Gradiente_sem_nome_38" x1="230.17" y1="119.58" x2="288" y2="119.58" gradientUnits="userSpaceOnUse"><stop offset="0.02" stop-color="#bc9554"/><stop offset="0.19" stop-color="#bb9351"/><stop offset="0.3" stop-color="#b68b48"/><stop offset="0.35" stop-color="#b38642"/><stop offset="0.7" stop-color="#ddbb78"/><stop offset="1" stop-color="#c99a50"/></linearGradient><linearGradient id="Gradiente_sem_nome_51" x1="229.17" y1="120.01" x2="289.04" y2="120.01" gradientUnits="userSpaceOnUse"><stop offset="0.02" stop-color="#bc9554"/><stop offset="0.17" stop-color="#bb9351"/><stop offset="0.27" stop-color="#b68b48"/><stop offset="0.32" stop-color="#b38642"/><stop offset="0.64" stop-color="#ddbb78"/><stop offset="1" stop-color="#c99a50"/></linearGradient><linearGradient id="Gradiente_sem_nome_96" x1="181.15" y1="64.11" x2="248.55" y2="64.11" gradientUnits="userSpaceOnUse"><stop offset="0" stop-color="#ddbb78"/><stop offset="0.02" stop-color="#dcb975"/><stop offset="0.18" stop-color="#d1a861"/><stop offset="0.34" stop-color="#cb9d54"/><stop offset="0.5" stop-color="#c99a50"/><stop offset="0.65" stop-color="#c5964d"/><stop offset="0.8" stop-color="#b88b45"/><stop offset="0.95" stop-color="#a47837"/><stop offset="1" stop-color="#9c7132"/></linearGradient><linearGradient id="Gradiente_sem_nome_35" x1="178.04" y1="64.13" x2="251.33" y2="64.13" gradientUnits="userSpaceOnUse"><stop offset="0" stop-color="#ddbb78"/><stop offset="0.5" stop-color="#c99a50"/><stop offset="1" stop-color="#9c7132"/></linearGradient><linearGradient id="Gradiente_sem_nome_105" x1="171.96" y1="107.57" x2="223.28" y2="107.57" xlink:href="#Gradiente_sem_nome_96"/><linearGradient id="Gradiente_sem_nome_35-2" x1="170.96" y1="107.48" x2="224.28" y2="107.48" xlink:href="#Gradiente_sem_nome_35"/><linearGradient id="Gradiente_sem_nome_73" x1="84.26" y1="134" x2="197.62" y2="134" gradientUnits="userSpaceOnUse"><stop offset="0.12" stop-color="#ddbb78"/><stop offset="0.46" stop-color="#c99a50"/><stop offset="0.72" stop-color="#9c7132"/></linearGradient><linearGradient id="Gradiente_sem_nome_35-3" x1="83.17" y1="134.15" x2="199.69" y2="134.15" xlink:href="#Gradiente_sem_nome_35"/><linearGradient id="Gradiente_sem_nome_87" x1="89.62" y1="190.49" x2="285.32" y2="190.49" xlink:href="#Gradiente_sem_nome_96"/><linearGradient id="Gradiente_sem_nome_35-4" x1="87.42" y1="190.44" x2="287.13" y2="190.44" xlink:href="#Gradiente_sem_nome_35"/><linearGradient id="Nova_amostra_de_gradiente_1" x1="144.77" y1="221.25" x2="285.32" y2="221.25" gradientUnits="userSpaceOnUse"><stop offset="0.02" stop-color="#bc9554"/><stop offset="0.12" stop-color="#be9857"/><stop offset="0.18" stop-color="#c6a15f"/><stop offset="0.23" stop-color="#d3b06d"/><stop offset="0.26" stop-color="#ddbb78"/><stop offset="0.53" stop-color="#b38642"/><stop offset="0.74" stop-color="#ddbb78"/><stop offset="1" stop-color="#c99a50"/></linearGradient><linearGradient id="Nova_amostra_de_gradiente_1-2" x1="143.62" y1="220.64" x2="286.64" y2="220.64" xlink:href="#Nova_amostra_de_gradiente_1"/><linearGradient id="Gradiente_sem_nome_79" x1="86.94" y1="239.51" x2="140.94" y2="239.51" gradientUnits="userSpaceOnUse"><stop offset="0.02" stop-color="#ddbb78"/><stop offset="0.04" stop-color="#dcb976"/><stop offset="0.21" stop-color="#d1a861"/><stop offset="0.39" stop-color="#cb9d54"/><stop offset="0.56" stop-color="#c99a50"/><stop offset="0.69" stop-color="#c5964d"/><stop offset="0.82" stop-color="#b98b45"/><stop offset="0.96" stop-color="#a47837"/><stop offset="1" stop-color="#9c7132"/></linearGradient><linearGradient id="Gradiente_sem_nome_35-5" x1="85.23" y1="239.98" x2="144.55" y2="239.98" xlink:href="#Gradiente_sem_nome_35"/></defs><title>Logo</title><g id="Camada_6" data-name="Camada 6"><path class="cls-1" d="M199.15,102.79v73.15l-54.38,24.89S151.28,144.53,199.15,102.79Z"/><path class="cls-2" d="M230.17,85.55v72L288,118.87S283.79,67.17,230.17,85.55Z"/><polygon class="cls-3" points="181.15 51.09 226.72 79.04 248.55 74.06 203.45 49.17 181.15 51.09"/><polygon class="cls-4" points="171.96 75.98 205.28 95.89 206.04 151.81 223.28 159.09 223.28 84.4 171.96 56.06 171.96 75.98"/><path class="cls-5" d="M197.62,97s-42.9,23-60.9,103.79l-52.46-28s9.57-66.25,60.51-105.7Z"/><path class="cls-6" d="M140.94,238.36l70.08-31,74.3-51.7-20.68-13-34.47,25.66s-3.06,3.06-22.21-10.73l-1.92,23-65.1,31.41L118,199.3l-2.3-1.53L89.62,210Z"/><path class="cls-7" d="M285.32,162.15s-7.66,55.53-55.15,98.42c0,0-71.23,53.24-85.4-14.93l73.14-33.32Z"/><path class="cls-8" d="M135.57,244.11s1.54,13.4,5.37,18.38c0,0-35.24-18.77-42.13-24.13a71.27,71.27,0,0,1-11.87-21.83Z"/><text class="cls-9" transform="matrix(0.76, -0.34, 0, 1, 210.97, 259.79)">$</text></g></svg>