<svg xmlns="http://www.w3.org/2000/svg" xmlns:xlink="http://www.w3.org/1999/xlink" viewBox="0 0 500 500"><defs><style>.cls-1,.cls-2,.cls-3,.cls-4,.cls-5,.cls-6,.cls-7,.cls-8{stroke-miterlimit:10;stroke-width:2px;}.cls-1{fill:url(#Gradiente_sem_nome_43);stroke:url(#Gradiente_sem_nome_47);}.cls-2{fill:url(#Gradiente_sem_nome_38);stroke:url(#Gradiente_sem_nome_51);}.cls-3{fill:url(#Gradiente_sem_nome_96);stroke:url(#Gradiente_sem_nome_35);}.cls-4{fill:url(#Gradiente_sem_nome_105);stroke:url(#Gradiente_sem_nome_35-2);}.cls-5{fill:url(#Gradiente_sem_nome_73);stroke:url(#Gradiente_sem_nome_35-3);}.cls-6{fill:url(#Gradiente_sem_nome_87);stroke:url(#Gradiente_sem_nome_35-4);}.cls-7{fill:url(#Nova_amostra_de_gradiente_1);stroke:url(#Nova_amostra_de_gradiente_1-2);}.cls-8{fill:url(#Gradiente_sem_nome_79);stroke:url(#Gradiente_sem_nome_35-5);}.cls-9{font-size:45.98px;stroke:#fff;stroke-width:4px;font-family:AdobeMingStd-Light-B5pc-H, Adobe Ming Std;}.cls-10{fill:none;stroke-linecap:round;stroke-linejoin:round;stroke-width:4.5px;stroke:url(#Borda);}.cls-11{font-size:21.93px;}.cls-11,.cls-22{font-family:Chella-Regular;}.cls-12{letter-spacing:0em;}.cls-13{letter-spacing:-0.02em;}.cls-14{letter-spacing:-0.02em;}.cls-15{letter-spacing:-0.01em;}.cls-16{letter-spacing:0em;}.cls-17{letter-spacing:0.01em;}.cls-18{letter-spacing:-0.01em;}.cls-19{letter-spacing:0em;}.cls-20{letter-spacing:0em;}.cls-21{fill:url(#Gradiente_sem_nome_81);}.cls-22{font-size:61.92px;}.cls-23{letter-spacing:0em;}.cls-24{letter-spacing:-0.02em;}.cls-25{letter-spacing:0em;}.cls-26{letter-spacing:0em;}.cls-27{letter-spacing:0em;}.cls-28{fill:url(#Nova_amostra_de_gradiente_1-3);}</style><linearGradient id="Gradiente_sem_nome_43" x1="191.32" y1="150.34" x2="245.7" y2="150.34" gradientUnits="userSpaceOnUse"><stop offset="0.02" stop-color="#bc9554"/><stop offset="0.14" stop-color="#bb9351"/><stop offset="0.23" stop-color="#b68b48"/><stop offset="0.26" stop-color="#b38642"/><stop offset="0.64" stop-color="#ddbb78"/><stop offset="1" stop-color="#c99a50"/></linearGradient><linearGradient id="Gradiente_sem_nome_47" x1="190.12" y1="150.06" x2="246.7" y2="150.06" gradientUnits="userSpaceOnUse"><stop offset="0.02" stop-color="#bc9554"/><stop offset="0.18" stop-color="#bb9351"/><stop offset="0.29" stop-color="#b68b48"/><stop offset="0.33" stop-color="#b38642"/><stop offset="0.69" stop-color="#ddbb78"/><stop offset="1" stop-color="#c99a50"/></linearGradient><linearGradient id="Gradiente_sem_nome_38" x1="276.72" y1="118.11" x2="334.55" y2="118.11" gradientUnits="userSpaceOnUse"><stop offset="0.02" stop-color="#bc9554"/><stop offset="0.19" stop-color="#bb9351"/><stop offset="0.3" stop-color="#b68b48"/><stop offset="0.35" stop-color="#b38642"/><stop offset="0.7" stop-color="#ddbb78"/><stop offset="1" stop-color="#c99a50"/></linearGradient><linearGradient id="Gradiente_sem_nome_51" x1="275.72" y1="118.54" x2="335.6" y2="118.54" gradientUnits="userSpaceOnUse"><stop offset="0.02" stop-color="#bc9554"/><stop offset="0.17" stop-color="#bb9351"/><stop offset="0.27" stop-color="#b68b48"/><stop offset="0.32" stop-color="#b38642"/><stop offset="0.64" stop-color="#ddbb78"/><stop offset="1" stop-color="#c99a50"/></linearGradient><linearGradient id="Gradiente_sem_nome_96" x1="227.7" y1="62.64" x2="295.11" y2="62.64" gradientUnits="userSpaceOnUse"><stop offset="0" stop-color="#ddbb78"/><stop offset="0.02" stop-color="#dcb975"/><stop offset="0.18" stop-color="#d1a861"/><stop offset="0.34" stop-color="#cb9d54"/><stop offset="0.5" stop-color="#c99a50"/><stop offset="0.65" stop-color="#c5964d"/><stop offset="0.8" stop-color="#b88b45"/><stop offset="0.95" stop-color="#a47837"/><stop offset="1" stop-color="#9c7132"/></linearGradient><linearGradient id="Gradiente_sem_nome_35" x1="224.59" y1="62.66" x2="297.89" y2="62.66" gradientUnits="userSpaceOnUse"><stop offset="0" stop-color="#ddbb78"/><stop offset="0.5" stop-color="#c99a50"/><stop offset="1" stop-color="#9c7132"/></linearGradient><linearGradient id="Gradiente_sem_nome_105" x1="218.51" y1="106.11" x2="269.83" y2="106.11" xlink:href="#Gradiente_sem_nome_96"/><linearGradient id="Gradiente_sem_nome_35-2" x1="217.51" y1="106.01" x2="270.83" y2="106.01" xlink:href="#Gradiente_sem_nome_35"/><linearGradient id="Gradiente_sem_nome_73" x1="130.81" y1="132.53" x2="244.17" y2="132.53" gradientUnits="userSpaceOnUse"><stop offset="0.12" stop-color="#ddbb78"/><stop offset="0.46" stop-color="#c99a50"/><stop offset="0.72" stop-color="#9c7132"/></linearGradient><linearGradient id="Gradiente_sem_nome_35-3" x1="129.72" y1="132.68" x2="246.24" y2="132.68" xlink:href="#Gradiente_sem_nome_35"/><linearGradient id="Gradiente_sem_nome_87" x1="136.17" y1="189.02" x2="331.87" y2="189.02" xlink:href="#Gradiente_sem_nome_96"/><linearGradient id="Gradiente_sem_nome_35-4" x1="133.97" y1="188.97" x2="333.68" y2="188.97" xlink:href="#Gradiente_sem_nome_35"/><linearGradient id="Nova_amostra_de_gradiente_1" x1="191.32" y1="219.79" x2="331.87" y2="219.79" gradientUnits="userSpaceOnUse"><stop offset="0.02" stop-color="#bc9554"/><stop offset="0.12" stop-color="#be9857"/><stop offset="0.18" stop-color="#c6a15f"/><stop offset="0.23" stop-color="#d3b06d"/><stop offset="0.26" stop-color="#ddbb78"/><stop offset="0.53" stop-color="#b38642"/><stop offset="0.74" stop-color="#ddbb78"/><stop offset="1" stop-color="#c99a50"/></linearGradient><linearGradient id="Nova_amostra_de_gradiente_1-2" x1="190.18" y1="219.17" x2="333.19" y2="219.17" xlink:href="#Nova_amostra_de_gradiente_1"/><linearGradient id="Gradiente_sem_nome_79" x1="133.49" y1="238.04" x2="187.49" y2="238.04" gradientUnits="userSpaceOnUse"><stop offset="0.02" stop-color="#ddbb78"/><stop offset="0.04" stop-color="#dcb976"/><stop offset="0.21" stop-color="#d1a861"/><stop offset="0.39" stop-color="#cb9d54"/><stop offset="0.56" stop-color="#c99a50"/><stop offset="0.69" stop-color="#c5964d"/><stop offset="0.82" stop-color="#b98b45"/><stop offset="0.96" stop-color="#a47837"/><stop offset="1" stop-color="#9c7132"/></linearGradient><linearGradient id="Gradiente_sem_nome_35-5" x1="131.78" y1="238.51" x2="191.1" y2="238.51" xlink:href="#Gradiente_sem_nome_35"/><linearGradient id="Borda" x1="102.75" y1="379.48" x2="363.25" y2="379.48" gradientUnits="userSpaceOnUse"><stop offset="0" stop-color="#78551d"/><stop offset="0.07" stop-color="#7b581f"/><stop offset="0.12" stop-color="#846127"/><stop offset="0.16" stop-color="#937035"/><stop offset="0.2" stop-color="#a88548"/><stop offset="0.24" stop-color="#c3a161"/><stop offset="0.26" stop-color="#ddbb78"/><stop offset="0.51" stop-color="#b38642"/><stop offset="0.74" stop-color="#ddbb78"/><stop offset="1" stop-color="#c99a50"/></linearGradient><linearGradient id="Gradiente_sem_nome_81" x1="40.87" y1="417.1" x2="470.87" y2="417.1" gradientUnits="userSpaceOnUse"><stop offset="0" stop-color="#b38642"/><stop offset="0.17" stop-color="#ddbb78"/><stop offset="0.28" stop-color="#a28043"/><stop offset="0.35" stop-color="#78551d"/><stop offset="0.43" stop-color="#9f7d40"/><stop offset="0.52" stop-color="#c19f5f"/><stop offset="0.6" stop-color="#d5b371"/><stop offset="0.65" stop-color="#ddbb78"/><stop offset="0.65" stop-color="#dcb975"/><stop offset="0.69" stop-color="#d3ab64"/><stop offset="0.73" stop-color="#cda159"/><stop offset="0.79" stop-color="#ca9c52"/><stop offset="0.95" stop-color="#c99a50"/></linearGradient><linearGradient id="Nova_amostra_de_gradiente_1-3" x1="64.2" y1="326.97" x2="437.16" y2="326.97" xlink:href="#Nova_amostra_de_gradiente_1"/></defs><title>Logo</title><g id="Camada_2" data-name="Camada 2"><path class="cls-1" d="M245.7,101.32v73.15l-54.38,24.89S197.83,143.06,245.7,101.32Z"/><path class="cls-2" d="M276.72,84.09v72l57.83-38.69S330.34,65.7,276.72,84.09Z"/><polygon class="cls-3" points="227.7 49.62 273.28 77.57 295.11 72.6 250 47.7 227.7 49.62"/><polygon class="cls-4" points="218.51 74.51 251.83 94.43 252.6 150.34 269.83 157.62 269.83 82.94 218.51 54.6 218.51 74.51"/><path class="cls-5" d="M244.17,95.57s-42.89,23-60.89,103.79l-52.47-28s9.57-66.25,60.51-105.7Z"/><path class="cls-6" d="M187.49,236.89l70.08-31,74.3-51.7-20.68-13-34.47,25.66s-3.06,3.06-22.21-10.72l-1.91,23-65.11,31.41-23-12.64-2.3-1.53-26,12.25Z"/><path class="cls-7" d="M331.87,160.68s-7.66,55.53-55.15,98.43c0,0-71.23,53.23-85.4-14.94l73.15-33.32Z"/><path class="cls-8" d="M182.13,242.64s1.53,13.4,5.36,18.38c0,0-35.23-18.76-42.13-24.13a71.27,71.27,0,0,1-11.87-21.83Z"/><text class="cls-9" transform="matrix(0.76, -0.34, 0, 1, 257.52, 258.32)">$</text></g><g id="Camada_5" data-name="Camada 5"><path class="cls-10" d="M105,393s139-50,256-14"/></g><g id="Camada_4" data-name="Camada 4"><text class="cls-11" transform="translate(33 422.66) scale(0.85 1)"><tspan class="cls-12">C</tspan><tspan x="15.17" y="0">o</tspan><tspan class="cls-13" x="27.89" y="0">n</tspan><tspan x="41.46" y="0">fiança n</tspan><tspan class="cls-14" x="127.26" y="0">o</tspan><tspan x="139.61" y="0">s núme</tspan><tspan class="cls-15" x="215.76" y="0">r</tspan><tspan class="cls-14" x="224.31" y="0">o</tspan><tspan class="cls-16" x="236.66" y="0">s. </tspan><tspan class="cls-17" x="255.84" y="0">S</tspan><tspan x="269.79" y="0">egu</tspan><tspan class="cls-18" x="308.32" y="0">r</tspan><tspan x="316.93" y="0">ança nas d</tspan><tspan class="cls-19" x="430.69" y="0">e</tspan><tspan x="442.2" y="0">cisõ</tspan><tspan class="cls-20" x="483.62" y="0">e</tspan><tspan x="495.09" y="0">s</tspan></text><path class="cls-21" d="M35.82,409a5.84,5.84,0,0,1,4.72-2.35,5,5,0,0,1,3.05.91,2.63,2.63,0,0,1,1.25,2.14,1.65,1.65,0,0,1-.48,1.21,1.83,1.83,0,0,1-1.24.52c-.26-2-1.19-3.07-2.77-3.07a3.46,3.46,0,0,0-3,1.76,8.51,8.51,0,0,0-1.15,4.73,7.61,7.61,0,0,0,1.19,4.6,3.73,3.73,0,0,0,3.15,1.61,4.5,4.5,0,0,0,2.47-.7,4.38,4.38,0,0,0,1.68-1.93c.12,0,.24.11.36.29a1.3,1.3,0,0,1,.18.72,3.24,3.24,0,0,1-1.36,2.46,5.51,5.51,0,0,1-3.67,1.15,5.52,5.52,0,0,1-4.68-2.13,9.19,9.19,0,0,1-1.6-5.65A9.63,9.63,0,0,1,35.82,409Z"/><path class="cls-21" d="M47.89,413.23a4.64,4.64,0,0,1,3.57-1.53,4.16,4.16,0,0,1,3.35,1.5,6.1,6.1,0,0,1,1.25,4,5.78,5.78,0,0,1-1.41,4.09,4.64,4.64,0,0,1-3.57,1.53,4.17,4.17,0,0,1-3.35-1.51,6.05,6.05,0,0,1-1.27-4A5.75,5.75,0,0,1,47.89,413.23Zm.78,4a5.67,5.67,0,0,0,.71,3.07,2.18,2.18,0,0,0,3.78,0,7.2,7.2,0,0,0,0-6.15,2.13,2.13,0,0,0-1.89-1.09,2.15,2.15,0,0,0-1.9,1.09A5.73,5.73,0,0,0,48.67,417.27Z"/><path class="cls-21" d="M57.74,412.57a2.25,2.25,0,0,1,.7-.49,2.15,2.15,0,0,1,.91-.23c.5,0,.75.34.75,1v1.56a5.27,5.27,0,0,1,1.74-2,4.06,4.06,0,0,1,2.32-.76,2.52,2.52,0,0,1,2,.86,3.73,3.73,0,0,1,.72,2.45c0,.71,0,1.58,0,2.61s-.06,1.8-.06,2.34.22,1,.66,1a1.09,1.09,0,0,0,.82-.4.8.8,0,0,1,.22.55,1.42,1.42,0,0,1-.59,1.07,2.26,2.26,0,0,1-1.48.49,1.77,1.77,0,0,1-1.37-.5,2.58,2.58,0,0,1-.45-1.71c0-.34,0-1.14.07-2.39s.06-2.07.06-2.42c0-1.47-.5-2.21-1.51-2.21a2.85,2.85,0,0,0-2.16,1.06,3.21,3.21,0,0,0-1,2.14v3.9a6.63,6.63,0,0,0,.2,1.82,1.53,1.53,0,0,1-1.08.31,1.44,1.44,0,0,1-1-.27,1.42,1.42,0,0,1-.29-1.05v-6.73A5,5,0,0,0,57.74,412.57Z"/><path class="cls-21" d="M80.28,420.55a.89.89,0,0,1,.2.55,1.38,1.38,0,0,1-.58,1.08,2.19,2.19,0,0,1-1.46.48,1.69,1.69,0,0,1-1.35-.52,2.48,2.48,0,0,1-.46-1.69v-5.84c0-.28,0-.62,0-1h-4v6.95a6.94,6.94,0,0,0,.19,1.82,1.48,1.48,0,0,1-1.09.31,1.43,1.43,0,0,1-1-.27,1.52,1.52,0,0,1-.28-1.05v-7.76H68.65a1.63,1.63,0,0,1-.1-.57,1.12,1.12,0,0,1,.2-.68.65.65,0,0,1,.55-.26h1.12V411A3.87,3.87,0,0,1,71.63,408a4.82,4.82,0,0,1,3.45-1.15,5.27,5.27,0,0,1,2.32.45c.61.3.91.68.91,1.13a1.12,1.12,0,0,1-.33.79,1.34,1.34,0,0,1-1,.35,3.5,3.5,0,0,0-.9-.95,2.16,2.16,0,0,0-1.33-.43,2,2,0,0,0-1.62.66,2.88,2.88,0,0,0-.55,1.91v1.29h4.55a2,2,0,0,1,.89-.22c.51,0,.77.34.77,1V420c0,.66.21,1,.64,1A1.22,1.22,0,0,0,80.28,420.55Z"/><path class="cls-21" d="M81.31,417.68a6.64,6.64,0,0,1,1.34-4.32,4,4,0,0,1,3.24-1.66A3.57,3.57,0,0,1,88.66,413a1.9,1.9,0,0,1,1.32-.77c.43,0,.64.27.64.81V420c0,.66.2,1,.62,1a1.23,1.23,0,0,0,.86-.4.8.8,0,0,1,.22.55,1.39,1.39,0,0,1-.61,1.07,2.21,2.21,0,0,1-1.45.49q-1.68,0-1.68-2.13v-.33a3.69,3.69,0,0,1-1.23,2,3.37,3.37,0,0,1-2.1.68,3.44,3.44,0,0,1-2.85-1.41A5.91,5.91,0,0,1,81.31,417.68Zm2.17-.26a5.2,5.2,0,0,0,.67,2.88,2.07,2.07,0,0,0,1.81,1q2.49,0,2.49-4.65v-2.39a2.45,2.45,0,0,0-4.18,0A5.55,5.55,0,0,0,83.48,417.42Z"/><path class="cls-21" d="M93.57,412.57a2.25,2.25,0,0,1,.7-.49,2.18,2.18,0,0,1,.91-.23c.5,0,.75.34.75,1v1.56a5.27,5.27,0,0,1,1.74-2,4.06,4.06,0,0,1,2.32-.76,2.54,2.54,0,0,1,2.05.86,3.73,3.73,0,0,1,.72,2.45q0,1.07-.06,2.61t-.06,2.34q0,1,.66,1a1.09,1.09,0,0,0,.82-.4.82.82,0,0,1,.23.55,1.4,1.4,0,0,1-.6,1.07,2.24,2.24,0,0,1-1.48.49,1.77,1.77,0,0,1-1.37-.5,2.58,2.58,0,0,1-.44-1.71c0-.34,0-1.14.06-2.39s.07-2.07.07-2.42c0-1.47-.51-2.21-1.52-2.21a2.85,2.85,0,0,0-2.16,1.06,3.21,3.21,0,0,0-1,2.14v3.9a6.63,6.63,0,0,0,.2,1.82,1.53,1.53,0,0,1-1.08.31,1.07,1.07,0,0,1-1.29-1.32v-6.73A5,5,0,0,0,93.57,412.57Z"/><path class="cls-21" d="M106.59,413.34a4.4,4.4,0,0,1,3.57-1.64,3.91,3.91,0,0,1,2.44.72,2,2,0,0,1,1,1.6,1.14,1.14,0,0,1-.49,1,1.7,1.7,0,0,1-1.07.37h-.07c-.21-1.51-.86-2.26-1.94-2.26a2.13,2.13,0,0,0-1.89,1.13,5.3,5.3,0,0,0-.71,2.9,4.75,4.75,0,0,0,.8,2.92,2.65,2.65,0,0,0,2.24,1.07,3.58,3.58,0,0,0,3-1.62q.39.15.39.75a2.14,2.14,0,0,1-.94,1.64,4.38,4.38,0,0,1-2.35.92l-.33,1.14a2,2,0,0,1,1.43.46,1.66,1.66,0,0,1,.47,1.25,1.79,1.79,0,0,1-.56,1.37,2.19,2.19,0,0,1-1.59.54,1.83,1.83,0,0,1-1.23-.34,1.11,1.11,0,0,1-.39-.87.62.62,0,0,1,.07-.33,2,2,0,0,0,1.35.44c.8,0,1.19-.31,1.19-.94s-.6-1-1.81-1l.49-1.66a4.26,4.26,0,0,1-3.26-1.52,5.73,5.73,0,0,1-1.18-3.75A6.46,6.46,0,0,1,106.59,413.34Z"/><path class="cls-21" d="M114.91,417.68a6.64,6.64,0,0,1,1.35-4.32,4,4,0,0,1,3.23-1.66,3.56,3.56,0,0,1,2.77,1.29,1.91,1.91,0,0,1,1.33-.77c.42,0,.64.27.64.81V420c0,.66.2,1,.61,1a1.21,1.21,0,0,0,.86-.4.82.82,0,0,1,.23.55,1.42,1.42,0,0,1-.61,1.07,2.23,2.23,0,0,1-1.45.49q-1.68,0-1.68-2.13v-.33a3.64,3.64,0,0,1-1.24,2,3.32,3.32,0,0,1-2.09.68,3.43,3.43,0,0,1-2.85-1.41A5.91,5.91,0,0,1,114.91,417.68Zm2.17-.26a5.29,5.29,0,0,0,.67,2.88,2.09,2.09,0,0,0,1.82,1q2.49,0,2.49-4.65v-2.39a2.42,2.42,0,0,0-2.14-1.2,2.39,2.39,0,0,0-2,1.15A5.55,5.55,0,0,0,117.08,417.42Z"/><path class="cls-21" d="M130.47,412.57a2.48,2.48,0,0,1,1.61-.72c.5,0,.75.34.75,1v1.56a5.27,5.27,0,0,1,1.74-2,4,4,0,0,1,2.32-.76,2.52,2.52,0,0,1,2,.86,3.73,3.73,0,0,1,.72,2.45c0,.71,0,1.58-.05,2.61s-.06,1.8-.06,2.34.22,1,.66,1a1.09,1.09,0,0,0,.82-.4.8.8,0,0,1,.22.55,1.42,1.42,0,0,1-.59,1.07,2.26,2.26,0,0,1-1.48.49,1.77,1.77,0,0,1-1.37-.5,2.58,2.58,0,0,1-.45-1.71c0-.34,0-1.14.07-2.39s.06-2.07.06-2.42c0-1.47-.5-2.21-1.51-2.21a2.85,2.85,0,0,0-2.16,1.06,3.21,3.21,0,0,0-1,2.14v3.9a6.63,6.63,0,0,0,.2,1.82,1.53,1.53,0,0,1-1.08.31,1.44,1.44,0,0,1-1-.27,1.42,1.42,0,0,1-.29-1.05v-6.73A5,5,0,0,0,130.47,412.57Z"/><path class="cls-21" d="M143.49,413.23a4.66,4.66,0,0,1,3.57-1.53,4.15,4.15,0,0,1,3.35,1.5,6.1,6.1,0,0,1,1.25,4,5.78,5.78,0,0,1-1.41,4.09,4.64,4.64,0,0,1-3.56,1.53,4.17,4.17,0,0,1-3.36-1.51,6,6,0,0,1-1.26-4A5.74,5.74,0,0,1,143.49,413.23Zm.78,4a5.67,5.67,0,0,0,.71,3.07,2.18,2.18,0,0,0,3.78,0,7.2,7.2,0,0,0,0-6.15,2.13,2.13,0,0,0-1.89-1.09,2.15,2.15,0,0,0-1.9,1.09A5.73,5.73,0,0,0,144.27,417.27Z"/><path class="cls-21" d="M153,420a.94.94,0,0,1,.63-.44,3.28,3.28,0,0,0,1.1,1.32,3.06,3.06,0,0,0,1.84.54,2.45,2.45,0,0,0,1.56-.45,1.4,1.4,0,0,0,.57-1.15c0-.52-.34-.93-1-1.22-.19-.08-.65-.23-1.38-.47a10.8,10.8,0,0,1-1.19-.4,5,5,0,0,1-1-.54,1.93,1.93,0,0,1-.75-.88,3,3,0,0,1-.24-1.27,3.06,3.06,0,0,1,1.15-2.5,4.61,4.61,0,0,1,3-.94,5.14,5.14,0,0,1,2.16.42,1.27,1.27,0,0,1,.9,1.16,1.41,1.41,0,0,1-.21.71,1,1,0,0,1-.53.47,3,3,0,0,0-2.4-1.33,2.45,2.45,0,0,0-1.46.42,1.35,1.35,0,0,0-.58,1.11,1.07,1.07,0,0,0,.34.77,2.07,2.07,0,0,0,.72.48c.26.1.63.23,1.11.37l.83.27c.17,0,.42.15.75.28a2.39,2.39,0,0,1,.73.41c.16.14.33.31.53.52a1.84,1.84,0,0,1,.4.74,3.85,3.85,0,0,1,.11.94,3.31,3.31,0,0,1-1,2.51,4.74,4.74,0,0,1-3.36,1,5.72,5.72,0,0,1-2.57-.52,1.58,1.58,0,0,1-1-1.43A1.52,1.52,0,0,1,153,420Z"/><path class="cls-21" d="M165.67,412.57a2.48,2.48,0,0,1,1.61-.72c.49,0,.74.34.74,1v1.56a5.35,5.35,0,0,1,1.74-2,4.06,4.06,0,0,1,2.32-.76,2.53,2.53,0,0,1,2,.86,3.73,3.73,0,0,1,.72,2.45q0,1.07-.06,2.61c0,1,0,1.8,0,2.34s.22,1,.65,1a1.08,1.08,0,0,0,.82-.4.82.82,0,0,1,.23.55,1.4,1.4,0,0,1-.6,1.07,2.24,2.24,0,0,1-1.48.49,1.74,1.74,0,0,1-1.36-.5,2.58,2.58,0,0,1-.45-1.71c0-.34,0-1.14.06-2.39s.07-2.07.07-2.42c0-1.47-.5-2.21-1.51-2.21a2.85,2.85,0,0,0-2.16,1.06,3.18,3.18,0,0,0-1,2.14v3.9a6.21,6.21,0,0,0,.21,1.82,1.58,1.58,0,0,1-1.09.31,1.07,1.07,0,0,1-1.29-1.32v-6.73A5.28,5.28,0,0,0,165.67,412.57Z"/><path class="cls-21" d="M178.31,412.07a2.05,2.05,0,0,1,.9-.22c.51,0,.76.34.76,1v6a2.93,2.93,0,0,0,.41,1.74,1.39,1.39,0,0,0,1.2.54,2.78,2.78,0,0,0,2.08-1,3.06,3.06,0,0,0,.91-2.12v-3.45a4.64,4.64,0,0,0-.22-2,2.19,2.19,0,0,1,.71-.49,2.14,2.14,0,0,1,.9-.23c.52,0,.78.34.78,1V420c0,.66.21,1,.62,1a1.18,1.18,0,0,0,.84-.4.86.86,0,0,1,.23.55,1.42,1.42,0,0,1-.61,1.07,2.29,2.29,0,0,1-1.49.49c-1.13,0-1.7-.69-1.7-2.06v-.37a4.2,4.2,0,0,1-1.5,1.86,4,4,0,0,1-2.37.75,2.8,2.8,0,0,1-2.15-.86,3.48,3.48,0,0,1-.81-2.48v-4.89a5.06,5.06,0,0,0-.2-2A2.24,2.24,0,0,1,178.31,412.07Zm1.94-2a7.18,7.18,0,0,0,1.74-1.34,4.05,4.05,0,0,0,1.31-1.86.89.89,0,0,1,.61.36,1.16,1.16,0,0,1,.33.8c0,.59-.41,1.14-1.23,1.67a4.12,4.12,0,0,1-2.08.79C180.52,410.47,180.29,410.33,180.25,410.05Z"/><path class="cls-21" d="M190.39,412.05a2.05,2.05,0,0,1,.9-.22c.5,0,.75.34.75,1v1.58a5.4,5.4,0,0,1,1.67-2,3.72,3.72,0,0,1,2.18-.74,2.57,2.57,0,0,1,1.88.7,3.13,3.13,0,0,1,.85,2,5.59,5.59,0,0,1,1.69-2,3.71,3.71,0,0,1,2.18-.73,2.59,2.59,0,0,1,2,.86,3.68,3.68,0,0,1,.74,2.45c0,.71,0,1.58-.07,2.61s-.06,1.8-.06,2.34.21,1,.65,1a1.12,1.12,0,0,0,.84-.4.84.84,0,0,1,.21.55,1.4,1.4,0,0,1-.6,1.07,2.24,2.24,0,0,1-1.48.49,1.71,1.71,0,0,1-1.35-.5,2.58,2.58,0,0,1-.44-1.71c0-.34,0-1.14.05-2.39s.06-2.07.06-2.42c0-1.47-.5-2.21-1.5-2.21a2.64,2.64,0,0,0-2,1.06,3.31,3.31,0,0,0-.9,2.14v3.9a6.72,6.72,0,0,0,.18,1.82,1.47,1.47,0,0,1-1,.31,1.44,1.44,0,0,1-1-.27,1.47,1.47,0,0,1-.28-1.05v-5.7c0-1.47-.5-2.21-1.5-2.21a2.66,2.66,0,0,0-2,1.06,3.33,3.33,0,0,0-.91,2.14v3.9a6.21,6.21,0,0,0,.21,1.82,1.55,1.55,0,0,1-1.08.31,1.49,1.49,0,0,1-1-.27,1.47,1.47,0,0,1-.28-1.05v-6.75a5,5,0,0,0-.21-2A2.36,2.36,0,0,1,190.39,412.05Z"/><path class="cls-21" d="M207.73,417.66a6.23,6.23,0,0,1,1.48-4.26,4.64,4.64,0,0,1,3.64-1.7,3.26,3.26,0,0,1,2.32.84,2.85,2.85,0,0,1,.9,2.18,3.24,3.24,0,0,1-1.68,2.82,8.15,8.15,0,0,1-4.31,1.15,2.76,2.76,0,0,0,2.83,2.48,3.85,3.85,0,0,0,1.85-.47,3,3,0,0,0,1.25-1.2.76.76,0,0,1,.36.75,2.23,2.23,0,0,1-1.14,1.8,4.87,4.87,0,0,1-2.81.79,4.44,4.44,0,0,1-3.4-1.39A5.33,5.33,0,0,1,207.73,417.66Zm2.22.11a8,8,0,0,0,1.35-.25,7.55,7.55,0,0,0,1.35-.53,2.77,2.77,0,0,0,1.11-.95,2.44,2.44,0,0,0,.42-1.41,1.67,1.67,0,0,0-.4-1.18,1.48,1.48,0,0,0-1.12-.42,2.28,2.28,0,0,0-2,1.18,5.53,5.53,0,0,0-.75,3C209.93,417.48,209.94,417.65,210,417.77Z"/><path class="cls-21" d="M218,412.57a2.19,2.19,0,0,1,.71-.49,2.11,2.11,0,0,1,.9-.23c.5,0,.75.34.75,1v1.56a5.81,5.81,0,0,1,1.29-1.88,2.34,2.34,0,0,1,1.54-.75.89.89,0,0,1,.72.3,1.26,1.26,0,0,1,.25.79,1.87,1.87,0,0,1-.43,1.34,2.08,2.08,0,0,0-1-.29c-1,0-1.78.72-2.3,2.15v4.43a6.21,6.21,0,0,0,.21,1.82,1.58,1.58,0,0,1-1.09.31,1.07,1.07,0,0,1-1.29-1.32v-6.71A5.07,5.07,0,0,0,218,412.57Z"/><path class="cls-21" d="M226.26,413.23a4.67,4.67,0,0,1,3.57-1.53,4.15,4.15,0,0,1,3.35,1.5,6.1,6.1,0,0,1,1.25,4,5.78,5.78,0,0,1-1.41,4.09,4.64,4.64,0,0,1-3.56,1.53,4.17,4.17,0,0,1-3.36-1.51,6,6,0,0,1-1.26-4A5.74,5.74,0,0,1,226.26,413.23Zm.78,4a5.58,5.58,0,0,0,.72,3.07,2.17,2.17,0,0,0,3.77,0,7.1,7.1,0,0,0,0-6.15,2.18,2.18,0,0,0-3.78,0A5.64,5.64,0,0,0,227,417.27Z"/><path class="cls-21" d="M235.78,420a1,1,0,0,1,.63-.44,3.28,3.28,0,0,0,1.1,1.32,3.08,3.08,0,0,0,1.84.54,2.45,2.45,0,0,0,1.56-.45,1.4,1.4,0,0,0,.57-1.15c0-.52-.34-.93-1-1.22-.18-.08-.64-.23-1.38-.47a11.58,11.58,0,0,1-1.19-.4,5,5,0,0,1-.95-.54,2.05,2.05,0,0,1-.75-.88,3,3,0,0,1-.23-1.27,3.08,3.08,0,0,1,1.14-2.5,4.61,4.61,0,0,1,3-.94,5.14,5.14,0,0,1,2.16.42,1.29,1.29,0,0,1,.91,1.16,1.43,1.43,0,0,1-.22.71,1,1,0,0,1-.53.47,3,3,0,0,0-2.4-1.33,2.45,2.45,0,0,0-1.46.42,1.34,1.34,0,0,0-.57,1.11,1.06,1.06,0,0,0,.33.77,2.27,2.27,0,0,0,.72.48c.26.1.63.23,1.11.37l.84.27c.17,0,.41.15.74.28a2.39,2.39,0,0,1,.73.41c.16.14.33.31.53.52a1.84,1.84,0,0,1,.4.74,3.85,3.85,0,0,1,.11.94,3.31,3.31,0,0,1-1.05,2.51,4.72,4.72,0,0,1-3.36,1,5.64,5.64,0,0,1-2.56-.52,1.58,1.58,0,0,1-1.05-1.43A1.52,1.52,0,0,1,235.78,420Z"/><path class="cls-21" d="M245.07,421.52a1.26,1.26,0,0,1,.33-.91,1.1,1.1,0,0,1,.83-.34,1.09,1.09,0,0,1,.83.34,1.51,1.51,0,0,1,0,1.83,1.09,1.09,0,0,1-.83.35,1.11,1.11,0,0,1-.83-.35A1.28,1.28,0,0,1,245.07,421.52Z"/><path class="cls-21" d="M251.71,420a1.71,1.71,0,0,1,.39-1.13,1.51,1.51,0,0,1,.88-.56,3.4,3.4,0,0,0,1.3,2.2,4.14,4.14,0,0,0,2.59.8,3.85,3.85,0,0,0,2.31-.66,2.21,2.21,0,0,0,.93-1.9,1.82,1.82,0,0,0-.43-1.2,3.51,3.51,0,0,0-1-.82c-.39-.2-1-.47-1.69-.79l-.23-.09-.68-.28-.76-.33-.68-.36a4.14,4.14,0,0,1-.72-.46l-.56-.55a2.37,2.37,0,0,1-.51-.71,6.71,6.71,0,0,1-.28-.86,4.54,4.54,0,0,1-.13-1.07,4.4,4.4,0,0,1,1.36-3.3,5.25,5.25,0,0,1,3.8-1.31,6.27,6.27,0,0,1,3,.68,2,2,0,0,1,1.25,1.71,1.41,1.41,0,0,1-1.14,1.41,2.85,2.85,0,0,0-1.22-1.48,3.8,3.8,0,0,0-2.18-.63,3,3,0,0,0-2,.64,2,2,0,0,0-.76,1.66,1.87,1.87,0,0,0,.14.78,2,2,0,0,0,.31.56,2,2,0,0,0,.6.48,6.84,6.84,0,0,0,.74.42l1,.46.45.2c.51.22.85.36,1,.44l.89.43a6.51,6.51,0,0,1,.88.52c.15.12.38.31.66.57a2.36,2.36,0,0,1,.59.72,6,6,0,0,1,.31.84,3.62,3.62,0,0,1,.15,1.06,4.48,4.48,0,0,1-1.54,3.6,6.16,6.16,0,0,1-4.11,1.31,6.66,6.66,0,0,1-3.49-.86A2.51,2.51,0,0,1,251.71,420Z"/><path class="cls-21" d="M263.66,417.66a6.23,6.23,0,0,1,1.49-4.26,4.63,4.63,0,0,1,3.64-1.7,3.23,3.23,0,0,1,2.31.84,2.85,2.85,0,0,1,.9,2.18,3.25,3.25,0,0,1-1.67,2.82,8.18,8.18,0,0,1-4.31,1.15,2.75,2.75,0,0,0,2.82,2.48,3.82,3.82,0,0,0,1.85-.47,3.05,3.05,0,0,0,1.26-1.2.77.77,0,0,1,.35.75,2.23,2.23,0,0,1-1.14,1.8,4.86,4.86,0,0,1-2.8.79,4.46,4.46,0,0,1-3.41-1.39A5.33,5.33,0,0,1,263.66,417.66Zm2.23.11a7.71,7.71,0,0,0,1.34-.25,7.94,7.94,0,0,0,1.36-.53,2.81,2.81,0,0,0,1.1-.95,2.44,2.44,0,0,0,.42-1.41,1.62,1.62,0,0,0-.4-1.18,1.47,1.47,0,0,0-1.11-.42,2.28,2.28,0,0,0-2,1.18,5.53,5.53,0,0,0-.75,3C265.87,417.48,265.88,417.65,265.89,417.77Z"/><path class="cls-21" d="M273.46,417.68a6.7,6.7,0,0,1,1.34-4.32A4,4,0,0,1,278,411.7a3.51,3.51,0,0,1,2.79,1.31,1.76,1.76,0,0,1,1.29-.79c.45,0,.67.27.67.81v9.26a4.75,4.75,0,0,1-5.1,5.24,4.79,4.79,0,0,1-2.35-.51,1.48,1.48,0,0,1-.9-1.31,1.23,1.23,0,0,1,.28-.78,1.06,1.06,0,0,1,.65-.43,2.42,2.42,0,0,0,2.41,1.56,2.82,2.82,0,0,0,1.38-.32A2.46,2.46,0,0,0,280,425a3.23,3.23,0,0,0,.44-1.12,7,7,0,0,0,.17-1.17c0-.3,0-.7,0-1.18v-1.21a3.16,3.16,0,0,1-3.23,2.53,3.46,3.46,0,0,1-2.86-1.41A6,6,0,0,1,273.46,417.68Zm2.84,2.63a2,2,0,0,0,1.82,1c1.54,0,2.37-1.34,2.47-4l0-3a2.45,2.45,0,0,0-2.16-1.23,2.37,2.37,0,0,0-2,1.14,5.55,5.55,0,0,0-.79,3.2A5.17,5.17,0,0,0,276.3,420.31Z"/><path class="cls-21" d="M285.54,412.07a2.05,2.05,0,0,1,.9-.22c.51,0,.77.34.77,1v6a2.94,2.94,0,0,0,.4,1.74,1.41,1.41,0,0,0,1.21.54,2.76,2.76,0,0,0,2.07-1,3.08,3.08,0,0,0,.92-2.12v-3.45a4.56,4.56,0,0,0-.23-2,2.19,2.19,0,0,1,.71-.49,2.22,2.22,0,0,1,.9-.23c.52,0,.79.34.79,1V420c0,.66.2,1,.61,1a1.22,1.22,0,0,0,.85-.4.9.9,0,0,1,.22.55,1.39,1.39,0,0,1-.61,1.07,2.26,2.26,0,0,1-1.48.49c-1.14,0-1.71-.69-1.71-2.06v-.37a4.18,4.18,0,0,1-1.49,1.86,4,4,0,0,1-2.38.75,2.82,2.82,0,0,1-2.15-.86,3.52,3.52,0,0,1-.8-2.48v-4.89a5,5,0,0,0-.21-2A2.36,2.36,0,0,1,285.54,412.07Z"/><path class="cls-21" d="M296.91,412.57a2.25,2.25,0,0,1,.7-.49,2.15,2.15,0,0,1,.91-.23c.5,0,.75.34.75,1v1.56a5.52,5.52,0,0,1,1.29-1.88,2.34,2.34,0,0,1,1.53-.75.89.89,0,0,1,.72.3,1.21,1.21,0,0,1,.26.79,1.87,1.87,0,0,1-.43,1.34,2.08,2.08,0,0,0-1.05-.29c-1,0-1.78.72-2.3,2.15v4.43a6.63,6.63,0,0,0,.2,1.82,1.53,1.53,0,0,1-1.08.31,1.44,1.44,0,0,1-1-.27,1.42,1.42,0,0,1-.29-1.05v-6.71A5.07,5.07,0,0,0,296.91,412.57Z"/><path class="cls-21" d="M303.81,417.68a6.64,6.64,0,0,1,1.35-4.32,4,4,0,0,1,3.24-1.66,3.55,3.55,0,0,1,2.76,1.29,1.91,1.91,0,0,1,1.33-.77c.43,0,.64.27.64.81V420c0,.66.2,1,.61,1a1.21,1.21,0,0,0,.86-.4.82.82,0,0,1,.23.55,1.39,1.39,0,0,1-.61,1.07,2.21,2.21,0,0,1-1.45.49q-1.68,0-1.68-2.13v-.33a3.64,3.64,0,0,1-1.24,2,3.32,3.32,0,0,1-2.09.68,3.44,3.44,0,0,1-2.85-1.41A5.91,5.91,0,0,1,303.81,417.68Zm2.17-.26a5.2,5.2,0,0,0,.68,2.88,2.07,2.07,0,0,0,1.81,1q2.49,0,2.49-4.65v-2.39a2.45,2.45,0,0,0-4.18,0A5.55,5.55,0,0,0,306,417.42Z"/><path class="cls-21" d="M316.08,412.57a2.48,2.48,0,0,1,1.61-.72c.5,0,.75.34.75,1v1.56a5.27,5.27,0,0,1,1.74-2,4.06,4.06,0,0,1,2.32-.76,2.52,2.52,0,0,1,2,.86,3.73,3.73,0,0,1,.72,2.45c0,.71,0,1.58-.05,2.61s-.06,1.8-.06,2.34.22,1,.66,1a1.09,1.09,0,0,0,.82-.4.8.8,0,0,1,.22.55,1.42,1.42,0,0,1-.59,1.07,2.26,2.26,0,0,1-1.48.49,1.77,1.77,0,0,1-1.37-.5,2.58,2.58,0,0,1-.45-1.71c0-.34,0-1.14.07-2.39s.06-2.07.06-2.42c0-1.47-.5-2.21-1.51-2.21a2.85,2.85,0,0,0-2.16,1.06,3.21,3.21,0,0,0-1,2.14v3.9a6.63,6.63,0,0,0,.2,1.82,1.53,1.53,0,0,1-1.08.31,1.44,1.44,0,0,1-1-.27,1.42,1.42,0,0,1-.29-1.05v-6.73A5,5,0,0,0,316.08,412.57Z"/><path class="cls-21" d="M329.1,413.34a4.4,4.4,0,0,1,3.57-1.64,3.91,3.91,0,0,1,2.44.72,2,2,0,0,1,.95,1.6,1.14,1.14,0,0,1-.49,1,1.7,1.7,0,0,1-1.07.37h-.07c-.21-1.51-.86-2.26-1.95-2.26a2.15,2.15,0,0,0-1.89,1.13,5.39,5.39,0,0,0-.71,2.9,4.75,4.75,0,0,0,.81,2.92,2.64,2.64,0,0,0,2.24,1.07,3.58,3.58,0,0,0,3.05-1.62q.39.15.39.75a2.14,2.14,0,0,1-.94,1.64,4.38,4.38,0,0,1-2.35.92l-.33,1.14a2,2,0,0,1,1.43.46,1.7,1.7,0,0,1,.47,1.25,1.79,1.79,0,0,1-.56,1.37,2.19,2.19,0,0,1-1.59.54,1.83,1.83,0,0,1-1.23-.34,1.11,1.11,0,0,1-.39-.87A.62.62,0,0,1,331,426a2,2,0,0,0,1.35.44c.79,0,1.19-.31,1.19-.94s-.6-1-1.81-1l.49-1.66a4.26,4.26,0,0,1-3.26-1.52,5.73,5.73,0,0,1-1.18-3.75A6.46,6.46,0,0,1,329.1,413.34Z"/><path class="cls-21" d="M337.42,417.68a6.64,6.64,0,0,1,1.35-4.32A4,4,0,0,1,342,411.7a3.56,3.56,0,0,1,2.77,1.29,1.89,1.89,0,0,1,1.33-.77q.63,0,.63.81V420c0,.66.21,1,.62,1a1.21,1.21,0,0,0,.86-.4.82.82,0,0,1,.23.55,1.42,1.42,0,0,1-.61,1.07,2.23,2.23,0,0,1-1.45.49q-1.68,0-1.68-2.13v-.33a3.64,3.64,0,0,1-1.24,2,3.34,3.34,0,0,1-2.09.68,3.45,3.45,0,0,1-2.86-1.41A5.91,5.91,0,0,1,337.42,417.68Zm2.17-.26a5.2,5.2,0,0,0,.67,2.88,2.09,2.09,0,0,0,1.82,1q2.48,0,2.48-4.65v-2.39a2.45,2.45,0,0,0-4.18,0A5.55,5.55,0,0,0,339.59,417.42Z"/><path class="cls-21" d="M353,412.57a2.48,2.48,0,0,1,1.61-.72c.5,0,.75.34.75,1v1.56a5.27,5.27,0,0,1,1.74-2,4,4,0,0,1,2.31-.76,2.53,2.53,0,0,1,2.05.86,3.73,3.73,0,0,1,.72,2.45c0,.71,0,1.58-.05,2.61s-.06,1.8-.06,2.34.22,1,.65,1a1.11,1.11,0,0,0,.83-.4.8.8,0,0,1,.22.55,1.4,1.4,0,0,1-.6,1.07,2.23,2.23,0,0,1-1.47.49,1.75,1.75,0,0,1-1.37-.5,2.58,2.58,0,0,1-.45-1.71c0-.34,0-1.14.07-2.39s.06-2.07.06-2.42c0-1.47-.5-2.21-1.51-2.21a2.85,2.85,0,0,0-2.16,1.06,3.18,3.18,0,0,0-1,2.14v3.9a6.21,6.21,0,0,0,.21,1.82,1.55,1.55,0,0,1-1.08.31,1.49,1.49,0,0,1-1-.27,1.46,1.46,0,0,1-.29-1.05v-6.73A5.06,5.06,0,0,0,353,412.57Z"/><path class="cls-21" d="M364.56,417.68a6.64,6.64,0,0,1,1.34-4.32,4,4,0,0,1,3.24-1.66,3.59,3.59,0,0,1,2.77,1.29,1.9,1.9,0,0,1,1.32-.77c.43,0,.64.27.64.81V420c0,.66.21,1,.62,1a1.23,1.23,0,0,0,.86-.4.8.8,0,0,1,.22.55,1.39,1.39,0,0,1-.61,1.07,2.19,2.19,0,0,1-1.45.49q-1.68,0-1.68-2.13v-.33a3.69,3.69,0,0,1-1.23,2,3.37,3.37,0,0,1-2.1.68,3.44,3.44,0,0,1-2.85-1.41A5.91,5.91,0,0,1,364.56,417.68Zm2.17-.26a5.2,5.2,0,0,0,.67,2.88,2.07,2.07,0,0,0,1.81,1q2.49,0,2.49-4.65v-2.39a2.45,2.45,0,0,0-4.18,0A5.55,5.55,0,0,0,366.73,417.42Z"/><path class="cls-21" d="M376.81,420a.92.92,0,0,1,.63-.44,3.28,3.28,0,0,0,1.1,1.32,3.06,3.06,0,0,0,1.84.54,2.45,2.45,0,0,0,1.56-.45,1.4,1.4,0,0,0,.57-1.15c0-.52-.34-.93-1-1.22-.19-.08-.65-.23-1.38-.47a10.8,10.8,0,0,1-1.19-.4,5,5,0,0,1-1-.54,1.93,1.93,0,0,1-.75-.88,3,3,0,0,1-.24-1.27,3.08,3.08,0,0,1,1.14-2.5,4.66,4.66,0,0,1,3-.94,5.14,5.14,0,0,1,2.16.42,1.27,1.27,0,0,1,.9,1.16,1.41,1.41,0,0,1-.21.71,1,1,0,0,1-.54.47,2.93,2.93,0,0,0-2.39-1.33,2.43,2.43,0,0,0-1.46.42,1.35,1.35,0,0,0-.58,1.11,1,1,0,0,0,.34.77,2.07,2.07,0,0,0,.72.48c.25.1.63.23,1.11.37l.83.27c.17,0,.42.15.75.28a2.52,2.52,0,0,1,.73.41,6.35,6.35,0,0,1,.52.52,1.74,1.74,0,0,1,.41.74,3.85,3.85,0,0,1,.11.94,3.31,3.31,0,0,1-1,2.51,4.74,4.74,0,0,1-3.36,1,5.72,5.72,0,0,1-2.57-.52,1.57,1.57,0,0,1-1-1.43A1.52,1.52,0,0,1,376.81,420Z"/><path class="cls-21" d="M390.36,413.36a4,4,0,0,1,3.24-1.66,3.16,3.16,0,0,1,2.56,1.2v-3.26a4.57,4.57,0,0,0-.22-2,2.09,2.09,0,0,1,.71-.5,2.18,2.18,0,0,1,.91-.23c.51,0,.77.35.77,1V420c0,.66.21,1,.62,1a1.14,1.14,0,0,0,.86-.4.84.84,0,0,1,.22.55,1.39,1.39,0,0,1-.61,1.07,2.19,2.19,0,0,1-1.45.49c-1.12,0-1.68-.72-1.68-2.17v-.35a3.5,3.5,0,0,1-1.21,2,3.21,3.21,0,0,1-2.1.7,3.47,3.47,0,0,1-2.87-1.41,5.91,5.91,0,0,1-1.09-3.75A6.7,6.7,0,0,1,390.36,413.36Zm1.5,6.95a2,2,0,0,0,1.81,1q2.49,0,2.49-4.65v-2.36a2.43,2.43,0,0,0-4.18-.08,5.55,5.55,0,0,0-.79,3.19A5.17,5.17,0,0,0,391.86,420.31Z"/><path class="cls-21" d="M400.89,417.66a6.23,6.23,0,0,1,1.49-4.26,4.63,4.63,0,0,1,3.64-1.7,3.23,3.23,0,0,1,2.31.84,2.85,2.85,0,0,1,.9,2.18,3.25,3.25,0,0,1-1.67,2.82,8.18,8.18,0,0,1-4.31,1.15,2.75,2.75,0,0,0,2.82,2.48,3.82,3.82,0,0,0,1.85-.47,3,3,0,0,0,1.26-1.2.77.77,0,0,1,.35.75,2.23,2.23,0,0,1-1.14,1.8,4.84,4.84,0,0,1-2.8.79,4.46,4.46,0,0,1-3.41-1.39A5.33,5.33,0,0,1,400.89,417.66Zm2.23.11a7.71,7.71,0,0,0,1.34-.25,7.94,7.94,0,0,0,1.36-.53,2.74,2.74,0,0,0,1.1-.95,2.44,2.44,0,0,0,.42-1.41,1.62,1.62,0,0,0-.4-1.18,1.47,1.47,0,0,0-1.11-.42,2.28,2.28,0,0,0-2,1.18,5.53,5.53,0,0,0-.75,3C403.1,417.48,403.11,417.65,403.12,417.77Z"/><path class="cls-21" d="M412.09,413.34a4.42,4.42,0,0,1,3.58-1.64,3.93,3.93,0,0,1,2.44.72,2,2,0,0,1,.94,1.6,1.14,1.14,0,0,1-.48,1,1.72,1.72,0,0,1-1.07.37h-.08c-.21-1.51-.86-2.26-1.94-2.26a2.13,2.13,0,0,0-1.89,1.13,5.39,5.39,0,0,0-.71,2.9,4.82,4.82,0,0,0,.8,2.92,2.67,2.67,0,0,0,2.25,1.07,3.59,3.59,0,0,0,3.05-1.62q.39.15.39.75a2.26,2.26,0,0,1-1.16,1.79,4.71,4.71,0,0,1-2.81.82A4.3,4.3,0,0,1,412,421.4a5.64,5.64,0,0,1-1.24-3.83A6.45,6.45,0,0,1,412.09,413.34Z"/><path class="cls-21" d="M421.33,408.06a1.62,1.62,0,0,1,1.12-.42,1.05,1.05,0,0,1,.75.26.9.9,0,0,1,.28.68,1.28,1.28,0,0,1-.47,1,1.71,1.71,0,0,1-1.13.41,1,1,0,0,1-.75-.25.85.85,0,0,1-.28-.67A1.24,1.24,0,0,1,421.33,408.06Zm-.43,4.51a2,2,0,0,1,.69-.49,2.22,2.22,0,0,1,.92-.23c.51,0,.77.34.77,1V420q0,1,.63,1a1.18,1.18,0,0,0,.84-.4.84.84,0,0,1,.21.55,1.38,1.38,0,0,1-.58,1.08,2.25,2.25,0,0,1-1.48.48,1.66,1.66,0,0,1-1.34-.52,2.53,2.53,0,0,1-.45-1.69v-5.84A5,5,0,0,0,420.9,412.57Z"/><path class="cls-21" d="M426.21,420a1,1,0,0,1,.64-.44,3.26,3.26,0,0,0,1.09,1.32,3.11,3.11,0,0,0,1.85.54,2.45,2.45,0,0,0,1.56-.45,1.4,1.4,0,0,0,.57-1.15c0-.52-.35-.93-1-1.22-.19-.08-.65-.23-1.39-.47a11.28,11.28,0,0,1-1.18-.4,5,5,0,0,1-1-.54,2,2,0,0,1-.74-.88,3,3,0,0,1-.24-1.27,3.08,3.08,0,0,1,1.14-2.5,4.63,4.63,0,0,1,3-.94,5.07,5.07,0,0,1,2.16.42,1.27,1.27,0,0,1,.91,1.16,1.41,1.41,0,0,1-.21.71,1,1,0,0,1-.54.47,2.93,2.93,0,0,0-2.39-1.33,2.43,2.43,0,0,0-1.46.42,1.32,1.32,0,0,0-.58,1.11,1,1,0,0,0,.34.77,2.07,2.07,0,0,0,.72.48c.25.1.62.23,1.11.37l.83.27c.17,0,.42.15.75.28a2.52,2.52,0,0,1,.73.41c.15.14.33.31.52.52a1.74,1.74,0,0,1,.41.74,3.85,3.85,0,0,1,.11.94,3.31,3.31,0,0,1-1.05,2.51,4.75,4.75,0,0,1-3.37,1,5.67,5.67,0,0,1-2.56-.52,1.58,1.58,0,0,1-1-1.43A1.52,1.52,0,0,1,426.21,420Z"/><path class="cls-21" d="M436.57,413.23a4.68,4.68,0,0,1,3.58-1.53,4.13,4.13,0,0,1,3.34,1.5,6,6,0,0,1,1.26,4,5.74,5.74,0,0,1-1.42,4.09,4.62,4.62,0,0,1-3.56,1.53,4.17,4.17,0,0,1-3.35-1.51,6,6,0,0,1-1.27-4A5.79,5.79,0,0,1,436.57,413.23Zm.66-3.79a1.29,1.29,0,0,1,.37-.95,1.37,1.37,0,0,1,1-.37,3.72,3.72,0,0,1,1.4.45,3.7,3.7,0,0,0,1.36.45.94.94,0,0,0,.72-.28,1.34,1.34,0,0,0,.35-.62,1.56,1.56,0,0,1,.34,1,1.27,1.27,0,0,1-.38.94,1.3,1.3,0,0,1-1,.37A3.41,3.41,0,0,1,440,410a3.45,3.45,0,0,0-1.35-.45.94.94,0,0,0-.72.28,1.21,1.21,0,0,0-.34.61A1.46,1.46,0,0,1,437.23,409.44Zm.84,10.9a2.18,2.18,0,0,0,3.78,0,7.2,7.2,0,0,0,0-6.15A2.13,2.13,0,0,0,440,413.1a2.15,2.15,0,0,0-1.9,1.09,7.06,7.06,0,0,0,0,6.15Z"/><path class="cls-21" d="M446,417.66a6.23,6.23,0,0,1,1.48-4.26,4.64,4.64,0,0,1,3.64-1.7,3.26,3.26,0,0,1,2.32.84,2.85,2.85,0,0,1,.9,2.18,3.24,3.24,0,0,1-1.68,2.82,8.15,8.15,0,0,1-4.31,1.15,2.76,2.76,0,0,0,2.83,2.48,3.82,3.82,0,0,0,1.85-.47,3,3,0,0,0,1.25-1.2.76.76,0,0,1,.36.75,2.23,2.23,0,0,1-1.14,1.8,4.87,4.87,0,0,1-2.81.79,4.44,4.44,0,0,1-3.4-1.39A5.33,5.33,0,0,1,446,417.66Zm2.22.11a8,8,0,0,0,1.35-.25A7.55,7.55,0,0,0,451,417a2.77,2.77,0,0,0,1.11-.95,2.44,2.44,0,0,0,.42-1.41,1.67,1.67,0,0,0-.4-1.18A1.48,1.48,0,0,0,451,413a2.28,2.28,0,0,0-2,1.18,5.53,5.53,0,0,0-.75,3C448.24,417.48,448.25,417.65,448.26,417.77Z"/><path class="cls-21" d="M456.19,420a1,1,0,0,1,.64-.44,3.26,3.26,0,0,0,1.09,1.32,3.1,3.1,0,0,0,1.84.54,2.48,2.48,0,0,0,1.57-.45,1.4,1.4,0,0,0,.57-1.15c0-.52-.35-.93-1-1.22-.19-.08-.65-.23-1.39-.47a10.52,10.52,0,0,1-1.18-.4,4.76,4.76,0,0,1-1-.54,2.05,2.05,0,0,1-.75-.88,3.2,3.2,0,0,1-.23-1.27,3.08,3.08,0,0,1,1.14-2.5,4.61,4.61,0,0,1,3-.94,5.07,5.07,0,0,1,2.16.42,1.27,1.27,0,0,1,.91,1.16,1.34,1.34,0,0,1-.22.71,1,1,0,0,1-.53.47,2.93,2.93,0,0,0-2.39-1.33,2.43,2.43,0,0,0-1.46.42,1.32,1.32,0,0,0-.58,1.11,1,1,0,0,0,.34.77,2.07,2.07,0,0,0,.72.48c.25.1.62.23,1.11.37l.83.27c.17,0,.42.15.75.28a2.52,2.52,0,0,1,.73.41c.15.14.33.31.52.52a1.72,1.72,0,0,1,.4.74,3.4,3.4,0,0,1,.12.94,3.31,3.31,0,0,1-1.05,2.51,4.75,4.75,0,0,1-3.37,1,5.67,5.67,0,0,1-2.56-.52,1.58,1.58,0,0,1-1.05-1.43A1.52,1.52,0,0,1,456.19,420Z"/><text class="cls-22" transform="translate(60 345.05) scale(0.85 1)">Fina<tspan class="cls-23" x="135.04" y="0">c</tspan><tspan x="167.3" y="0">o</tspan><tspan class="cls-24" x="203.21" y="0">n</tspan><tspan class="cls-25" x="241.84" y="0">t</tspan><tspan x="268.16" y="0">a, </tspan><tspan class="cls-26" x="330.07" y="0">L</tspan><tspan class="cls-27" x="367.53" y="0">da</tspan></text><path class="cls-28" d="M68.51,301.21H86.46a12.24,12.24,0,0,0,3.68-.43,5.08,5.08,0,0,1,.47,2.29c0,2.14-1,3.22-3.15,3.22H71.13v16.34l16.54-.37a9.27,9.27,0,0,1,.26,2.05c0,2-.75,3-2.26,3q-9.6,0-14.54-.19v12.39a20.63,20.63,0,0,0,.53,5.14,4.48,4.48,0,0,1-3,.86,4.38,4.38,0,0,1-2.94-.77,4,4,0,0,1-.84-2.94V308.58q0-5.2-.63-5.95C64.62,301.69,66.05,301.21,68.51,301.21Z"/><path class="cls-28" d="M96.49,303.81a4.56,4.56,0,0,1,3.15-1.18,2.94,2.94,0,0,1,2.1.75,2.52,2.52,0,0,1,.79,1.92,3.54,3.54,0,0,1-1.34,2.72A4.66,4.66,0,0,1,98,309.2a3,3,0,0,1-2.1-.71,2.46,2.46,0,0,1-.79-1.89A3.58,3.58,0,0,1,96.49,303.81Zm-1.21,12.76a5.39,5.39,0,0,1,1.94-1.4,6.07,6.07,0,0,1,2.58-.65c1.43,0,2.15,1,2.15,2.91v20c0,1.86.59,2.79,1.78,2.79a3.4,3.4,0,0,0,2.37-1.12,2.36,2.36,0,0,1,.57,1.55,3.94,3.94,0,0,1-1.62,3,6.3,6.3,0,0,1-4.15,1.36,4.73,4.73,0,0,1-3.78-1.46q-1.26-1.45-1.26-4.8V322.32Q95.86,317.25,95.28,316.57Z"/><path class="cls-28" d="M110.24,316.57a6.05,6.05,0,0,1,2-1.4,5.87,5.87,0,0,1,2.55-.65q2.1,0,2.1,2.91v4.4a14.73,14.73,0,0,1,4.88-5.57,11.31,11.31,0,0,1,6.51-2.17,7,7,0,0,1,5.75,2.44q2,2.46,2,6.91,0,3-.16,7.37c-.1,2.89-.15,5.09-.15,6.62q0,2.79,1.83,2.79a3.11,3.11,0,0,0,2.31-1.12,2.23,2.23,0,0,1,.63,1.55,3.91,3.91,0,0,1-1.68,3,6.27,6.27,0,0,1-4.14,1.4,4.86,4.86,0,0,1-3.84-1.43q-1.26-1.42-1.26-4.83c0-1,.06-3.19.19-6.75s.18-5.82.18-6.81c0-4.16-1.42-6.25-4.25-6.25a8.05,8.05,0,0,0-6.07,3,9.11,9.11,0,0,0-2.7,6v11a17.84,17.84,0,0,0,.58,5.14,4.43,4.43,0,0,1-3,.87,3,3,0,0,1-3.62-3.72v-19Q110.82,317.25,110.24,316.57Z"/><path class="cls-28" d="M142.74,331q0-7.49,3.78-12.2t9.08-4.7a10,10,0,0,1,7.77,3.65c1.3-1.44,2.54-2.17,3.73-2.17s1.79.77,1.79,2.3v19.56c0,1.86.57,2.79,1.73,2.79A3.43,3.43,0,0,0,173,339.1a2.23,2.23,0,0,1,.63,1.55,3.9,3.9,0,0,1-1.7,3,6.25,6.25,0,0,1-4.07,1.4q-4.72,0-4.73-6v-.93a10.14,10.14,0,0,1-3.46,5.51,9.31,9.31,0,0,1-5.88,1.92,9.67,9.67,0,0,1-8-4Q142.73,337.62,142.74,331Zm6.09-.74q0,5.26,1.89,8.14a5.82,5.82,0,0,0,5.09,2.88q7,0,7-13.13V321.4a6.84,6.84,0,0,0-11.74-.16Q148.82,324.5,148.83,330.25Z"/><path class="cls-28" d="M180,318.73a12.4,12.4,0,0,1,10-4.64,10.92,10.92,0,0,1,6.85,2q2.66,2,2.65,4.52a3.22,3.22,0,0,1-1.36,2.7,4.89,4.89,0,0,1-3,1h-.21Q194,318,189.47,318a6,6,0,0,0-5.31,3.19,15.25,15.25,0,0,0-2,8.2q0,5.21,2.26,8.24a7.4,7.4,0,0,0,6.3,3,10,10,0,0,0,8.55-4.58q1.11.44,1.11,2.1c0,1.86-1.09,3.56-3.26,5.08a13.3,13.3,0,0,1-7.87,2.29q-6.15,0-9.64-4.05t-3.49-10.81A18.34,18.34,0,0,1,180,318.73Z"/><path class="cls-28" d="M207.32,318.42a13,13,0,0,1,10-4.33,11.58,11.58,0,0,1,9.4,4.24q3.52,4.25,3.52,11.36t-4,11.55a13,13,0,0,1-10,4.3,11.64,11.64,0,0,1-9.42-4.24q-3.54-4.24-3.54-11.36T207.32,318.42Zm2.2,11.4q0,5.56,2,8.66a6.08,6.08,0,0,0,10.6,0c1.3-2.06,1.94-5,1.94-8.66s-.64-6.66-1.94-8.7a6,6,0,0,0-5.3-3.07,6,6,0,0,0-5.33,3.07Q209.53,324.18,209.52,329.82Z"/><path class="cls-28" d="M235,316.57a6.05,6.05,0,0,1,2-1.4,5.91,5.91,0,0,1,2.55-.65q2.1,0,2.1,2.91v4.4a14.73,14.73,0,0,1,4.88-5.57,11.31,11.31,0,0,1,6.51-2.17,7,7,0,0,1,5.75,2.44q2,2.46,2,6.91,0,3-.16,7.37c-.1,2.89-.15,5.09-.15,6.62,0,1.86.61,2.79,1.84,2.79a3.09,3.09,0,0,0,2.3-1.12,2.23,2.23,0,0,1,.63,1.55,3.88,3.88,0,0,1-1.68,3,6.27,6.27,0,0,1-4.14,1.4,4.86,4.86,0,0,1-3.84-1.43q-1.26-1.42-1.26-4.83c0-1,.07-3.19.19-6.75s.18-5.82.18-6.81c0-4.16-1.42-6.25-4.25-6.25a8.05,8.05,0,0,0-6.07,3,9.11,9.11,0,0,0-2.7,6v11a17.84,17.84,0,0,0,.58,5.14,4.43,4.43,0,0,1-3,.87,3,3,0,0,1-3.62-3.72v-19Q235.56,317.25,235,316.57Z"/><path class="cls-28" d="M265.59,317.74c0-1.77.65-2.66,2-2.66H270V312.6q0-5.07-.58-5.76a5.59,5.59,0,0,1,1.9-1.39,5.68,5.68,0,0,1,2.51-.65q2.16,0,2.16,2.91v7.37h9.66a4.38,4.38,0,0,1,.31,1.73c0,1.74-.66,2.6-2,2.6h-8v16.1q0,5.14,4.09,5.14a6.34,6.34,0,0,0,5.62-2.79,2,2,0,0,1,.79,1.8,5.15,5.15,0,0,1-2.39,4.06,9.92,9.92,0,0,1-6.17,1.82c-2.63,0-4.6-.73-5.93-2.2a8.91,8.91,0,0,1-2-6.22V319.41h-4.2A5.71,5.71,0,0,1,265.59,317.74Z"/><path class="cls-28" d="M288.8,331q0-7.49,3.78-12.2t9.08-4.7a10,10,0,0,1,7.77,3.65c1.29-1.44,2.54-2.17,3.73-2.17s1.78.77,1.78,2.3v19.56q0,2.79,1.74,2.79a3.43,3.43,0,0,0,2.41-1.12,2.23,2.23,0,0,1,.63,1.55,3.89,3.89,0,0,1-1.71,3,6.2,6.2,0,0,1-4.06,1.4q-4.72,0-4.73-6v-.93a10.16,10.16,0,0,1-3.47,5.51,9.26,9.26,0,0,1-5.87,1.92,9.66,9.66,0,0,1-8-4Q288.79,337.62,288.8,331Zm6.09-.74q0,5.26,1.89,8.14a5.82,5.82,0,0,0,5.09,2.88q7,0,7-13.13V321.4a6.83,6.83,0,0,0-11.73-.16Q294.89,324.5,294.89,330.25Z"/><path class="cls-28" d="M324.18,344.92a13.78,13.78,0,0,0-.89-5.63,4.8,4.8,0,0,1,3-1.12q2.84,0,2.84,4.34a17.53,17.53,0,0,1-1.66,7.27q-1.65,3.69-3.59,3.69a2.56,2.56,0,0,1-1.21-.44C323.68,351.3,324.18,348.6,324.18,344.92Z"/><path class="cls-28" d="M345.76,301.09a6.5,6.5,0,0,1,2.62-.62c1.54,0,2.32.95,2.32,2.85V334c0,2.56.5,4.39,1.52,5.48s2.94,1.64,5.77,1.64a16,16,0,0,0,6.72-1.3,8.72,8.72,0,0,0,4.05-3.34A3.44,3.44,0,0,1,370,338a4.84,4.84,0,0,1,.52,2.13c0,1.74-1.23,3.18-3.7,4.34a22,22,0,0,1-9.27,1.73q-6.87,0-10.05-2.63t-3.18-8.33V308.27q0-5.2-.63-5.76A6.27,6.27,0,0,1,345.76,301.09Z"/><path class="cls-28" d="M376.84,318.79q3.78-4.69,9.08-4.7a8.88,8.88,0,0,1,7.2,3.4v-9.22q0-5.14-.63-5.76a7.05,7.05,0,0,1,4.56-2q2.16,0,2.16,2.91v34.05c0,1.86.57,2.79,1.73,2.79a3.2,3.2,0,0,0,2.41-1.12,2.4,2.4,0,0,1,.63,1.55,3.9,3.9,0,0,1-1.7,3,6.25,6.25,0,0,1-4.07,1.4c-3.15,0-4.73-2.05-4.73-6.13v-1a10.23,10.23,0,0,1-3.38,5.66,9.18,9.18,0,0,1-5.91,2,9.73,9.73,0,0,1-8.06-4q-3.08-4-3.07-10.59Q373.06,323.51,376.84,318.79Zm4.2,19.63a5.74,5.74,0,0,0,5.09,2.85q7,0,7-13.13v-6.68a6.8,6.8,0,0,0-6-3.47,6.73,6.73,0,0,0-5.75,3.25q-2.24,3.25-2.23,9Q379.15,335.58,381,338.42Z"/><path class="cls-28" d="M406.24,331q0-7.49,3.78-12.2t9.08-4.7a10,10,0,0,1,7.77,3.65c1.3-1.44,2.54-2.17,3.73-2.17s1.79.77,1.79,2.3v19.56c0,1.86.57,2.79,1.73,2.79a3.43,3.43,0,0,0,2.41-1.12,2.23,2.23,0,0,1,.63,1.55,3.9,3.9,0,0,1-1.7,3,6.25,6.25,0,0,1-4.07,1.4q-4.72,0-4.73-6v-.93a10.14,10.14,0,0,1-3.46,5.51,9.31,9.31,0,0,1-5.88,1.92,9.67,9.67,0,0,1-8-4Q406.24,337.62,406.24,331Zm6.09-.74q0,5.26,1.89,8.14a5.82,5.82,0,0,0,5.09,2.88q7,0,7-13.13V321.4a6.83,6.83,0,0,0-11.73-.16Q412.33,324.5,412.33,330.25Z"/></g></svg>